# WaveFront *.obj file (generated by CINEMA 4D)

mtllib ./v.mtl

v -193.1197509765625 639.1529541015625 47.8458366394043
v -103.93728637695312 639.1529541015625 47.8458366394043
v -84.27323913574219 558.0386962890625 47.8458366394043
v -172.22659301757812 558.0386962890625 47.8458366394043
v -104.15074920654297 640.1529541015625 46.8458366394043
v -193.40995788574219 640.1529541015625 46.8458366394043
v -193.40995788574219 640.1529541015625 -21.15416526794434
v -104.15074920654297 640.1529541015625 -21.15416526794434
v -194.1605224609375 639.1845703125 46.8458366394043
v -173.2510986328125 558.007080078125 46.8458366394043
v -173.2510986328125 558.007080078125 -21.15416526794434
v -194.1605224609375 639.1845703125 -21.15416526794434
v -172.00166320800781 557.0386962890625 46.8458366394043
v -84.00185394287109 557.0386962890625 46.8458366394043
v -84.00185394287109 557.0386962890625 -21.15416526794434
v -172.00166320800781 557.0386962890625 -21.15416526794434
v -83.23744964599609 558.010498046875 46.8458366394043
v -102.91514587402344 639.18115234375 46.8458366394043
v -102.91514587402344 639.18115234375 -21.15416526794434
v -83.23744964599609 558.010498046875 -21.15416526794434
v 145.89358520507812 639.1529541015625 47.8458366394043
v 27.51045989990234 175.65296936035156 47.8458366394043
v -58.46284484863281 175.65296936035156 47.8458366394043
v 59.9202766418457 639.1529541015625 47.8458366394043
v 60.14358901977539 640.1529541015625 46.8458366394043
v 60.14358901977539 640.1529541015625 -21.15416526794434
v 146.18109130859375 640.1529541015625 -21.15416526794434
v 146.18109130859375 640.1529541015625 46.8458366394043
v 146.93362426757812 639.18408203125 46.8458366394043
v 146.93362426757812 639.18408203125 -21.15416526794434
v 28.53461837768555 175.62187194824219 -21.15416526794434
v 28.53461837768555 175.62187194824219 46.8458366394043
v 27.28715133666992 174.65296936035156 46.8458366394043
v 27.28715133666992 174.65296936035156 -21.15416526794434
v -58.75035858154297 174.65296936035156 -21.15416526794434
v -58.75035858154297 174.65296936035156 46.8458366394043
v -59.50289154052734 175.62187194824219 46.8458366394043
v -59.50289154052734 175.62187194824219 -21.15416526794434
v 58.89612197875977 639.18408203125 -21.15416526794434
v 58.89612197875977 639.18408203125 46.8458366394043
v -193.1197509765625 639.1529541015625 -22.15416526794434
v -172.22659301757812 558.0386962890625 -22.15416526794434
v -84.27323913574219 558.0386962890625 -22.15416526794434
v -103.93728637695312 639.1529541015625 -22.15416526794434
v 145.89358520507812 639.1529541015625 -22.15416526794434
v 59.9202766418457 639.1529541015625 -22.15416526794434
v -58.46284484863281 175.65296936035156 -22.15416526794434
v 27.51045989990234 175.65296936035156 -22.15416526794434
v -193.89369201660156 639.7528076171875 47.44462203979492
v -103.45899200439453 639.7611083984375 47.44462203979492
v -83.51106262207031 557.439208984375 47.44462203979492
v -172.69857788085938 557.4296875 47.44462203979492
v -193.89369201660156 639.7528076171875 -21.75295257568359
v -103.45899200439453 639.7611083984375 -21.75295257568359
v -172.69857788085938 557.4296875 -21.75295257568359
v -83.51106262207031 557.439208984375 -21.75295257568359
v 146.66583251953125 639.75274658203125 47.44462203979492
v 27.98334121704102 175.04414367675781 47.44462203979492
v -59.2350959777832 175.05317687988281 47.44462203979492
v 59.4473991394043 639.7618408203125 47.44462203979492
v 59.4473991394043 639.7618408203125 -21.75295257568359
v 146.66583251953125 639.75274658203125 -21.75295257568359
v 27.98334121704102 175.04414367675781 -21.75295257568359
v -59.2350959777832 175.05317687988281 -21.75295257568359
v -193.85569763183594 639.17535400390625 47.55294036865234
v -194.02256774902344 639.85272216796875 46.8458366394043
v -193.32496643066406 639.860107421875 47.55294036865234
v -104.08822631835938 639.860107421875 47.55294036865234
v -103.36474609375 639.88092041015625 46.8458366394043
v -103.21452331542969 639.1728515625 47.55294036865234
v -83.54082489013672 558.018798828125 47.55294036865234
v -83.38362884521484 557.3389892578125 46.8458366394043
v -84.08133697509766 557.33154296875 47.55294036865234
v -172.06753540039062 557.33154296875 47.55294036865234
v -172.79205322265625 557.30914306640625 46.8458366394043
v -172.95101928710938 558.01629638671875 47.55294036865234
v -194.02256774902344 639.85272216796875 -21.15416526794434
v -193.85569763183594 639.17535400390625 -21.86127281188965
v -193.32496643066406 639.860107421875 -21.86127281188965
v -104.08822631835938 639.860107421875 -21.86127281188965
v -103.21452331542969 639.1728515625 -21.86127281188965
v -103.36474609375 639.88092041015625 -21.15416526794434
v -172.79205322265625 557.30914306640625 -21.15416526794434
v -172.06753540039062 557.33154296875 -21.86127281188965
v -172.95101928710938 558.01629638671875 -21.86127281188965
v -83.38362884521484 557.3389892578125 -21.15416526794434
v -83.54082489013672 558.018798828125 -21.86127281188965
v -84.08133697509766 557.33154296875 -21.86127281188965
v 146.09687805175781 639.860107421875 47.55294036865234
v 146.79449462890625 639.85272216796875 46.8458366394043
v 146.62901306152344 639.17498779296875 47.55294036865234
v 28.23464965820312 175.6309814453125 47.55294036865234
v 28.07691955566406 174.92366027832031 46.8458366394043
v 27.3525562286377 174.94587707519531 47.55294036865234
v -58.66614532470703 174.94587707519531 47.55294036865234
v -59.36376190185547 174.9532470703125 46.8458366394043
v -59.19826889038086 175.6309814453125 47.55294036865234
v 59.19609069824219 639.17498779296875 47.55294036865234
v 59.35382080078125 639.88232421875 46.8458366394043
v 60.07818222045898 639.860107421875 47.55294036865234
v 59.35382080078125 639.88232421875 -21.15416526794434
v 59.19609069824219 639.17498779296875 -21.86127281188965
v 60.07818222045898 639.860107421875 -21.86127281188965
v 146.09687805175781 639.860107421875 -21.86127281188965
v 146.62901306152344 639.17498779296875 -21.86127281188965
v 146.79449462890625 639.85272216796875 -21.15416526794434
v 28.23464965820312 175.6309814453125 -21.86127281188965
v 27.3525562286377 174.94587707519531 -21.86127281188965
v 28.07691955566406 174.92366027832031 -21.15416526794434
v -58.66614532470703 174.94587707519531 -21.86127281188965
v -59.19826889038086 175.6309814453125 -21.86127281188965
v -59.36376190185547 174.9532470703125 -21.15416526794434
# 112 vertices

vn -0.96839743852615 -0.24941204488277 0
vn 0 -1 0
vn 0.97185117006302 0.23559556901455 0
vn 0 1 0
vn 0.96890211105347 -0.24744440615177 0
vn -0.96890211105347 0.24744440615177 0
vn 0 0 -1
vn 0 0 1
vn -0.96996784210205 0.02675083838403 0.24175757169724
vn -0.70088797807693 0.00340631301515 0.71326321363449
vn -0.6529296040535 -0.32241776585579 0.68536829948425
vn -0.87225842475891 -0.43041041493416 0.23218974471092
vn -0.60467344522476 -0.78017848730087 0.16028581559658
vn -0.60467344522476 -0.78017848730087 -0.16028581559658
vn -0.87225842475891 -0.43041041493416 -0.23218974471092
vn -0.23112750053406 0.17912693321705 -0.95629161596298
vn -0.70088797807693 0.00340631301515 -0.71326321363449
vn -0.65291565656662 -0.32241088151932 -0.6853848695755
vn -0.22262704372406 -0.28722137212753 -0.93163353204727
vn -0.2678494155407 0.93264478445053 0.24172386527061
vn -0.77692973613739 0.60217446088791 0.18375554680824
vn -0.77692973613739 0.60217446088791 -0.18375554680824
vn -0.2678494155407 0.93264478445053 -0.24172386527061
vn -0.19922392070293 -0.95205593109131 0.23216226696968
vn -0.1493461728096 -0.71273028850555 0.68535482883453
vn 0.1778466552496 -0.67904233932495 0.71223038434982
vn 0.26610267162323 -0.93328136205673 0.24119558930397
vn 0.77279829978943 -0.60782587528229 0.18256652355194
vn 0.77279829978943 -0.60782587528229 -0.18256652355194
vn 0.26610267162323 -0.93328136205673 -0.24119558930397
vn -0.1493461728096 -0.71273028850555 -0.68535482883453
vn 0.1778466552496 -0.67904233932495 -0.71223038434982
vn 0.23178943991661 -0.18228769302368 -0.95553380250931
vn 0.96969747543335 -0.03871914744377 0.24122123420238
vn 0.70182609558105 -0.01284399908036 0.71223253011703
vn 0.65641552209854 0.31406691670418 0.68591594696045
vn 0.87736970186234 0.41985616087914 0.23225685954094
vn 0.61016964912415 0.77582955360413 0.16056601703167
vn 0.61016964912415 0.77582955360413 -0.16056601703167
vn 0.87736970186234 0.41985616087914 -0.23225685954094
vn 0.70182609558105 -0.01284399908036 -0.71223253011703
vn 0.65641552209854 0.31406691670418 -0.68591594696045
vn 0.22372224926949 0.28441068530083 -0.932233273983
vn -0.23112750053406 0.17912693321705 0.95629161596298
vn -0.17816182971001 0.6778649687767 0.71327233314514
vn 0.15056636929512 0.71195578575134 0.68589264154434
vn 0.22372025251389 0.28443941473961 0.93222498893738
vn -0.17816182971001 0.6778649687767 -0.71327233314514
vn 0.15056636929512 0.71195578575134 -0.68589264154434
vn 0.2012842297554 0.95160788297653 -0.23222218453884
vn 0.96994197368622 0.0284698009491 0.24166515469551
vn 0.77634060382843 0.60299056768417 0.18356914818287
vn 0.77634060382843 0.60299056768417 -0.18356914818287
vn 0.96994197368622 0.0284698009491 -0.24166515469551
vn 0.70102578401566 0.00478142593056 -0.71311992406845
vn 0.65342396497726 -0.32122746109962 -0.68545609712601
vn 0.87299227714539 -0.42891782522202 -0.23219376802444
vn 0.19953441619873 -0.95198386907578 0.23219119012356
vn 0.60547733306885 -0.77954238653183 0.16034603118896
vn 0.60547733306885 -0.77954238653183 -0.16034603118896
vn 0.19953441619873 -0.95198386907578 -0.23219119012356
vn 0.23122572898865 0.17956791818142 0.95618516206741
vn 0.70102578401566 0.00478142593056 0.71311992406845
vn 0.65342396497726 -0.32122746109962 0.68545609712601
vn 0.22278654575348 -0.28685060143471 0.93170964717865
vn 0.14953319728374 -0.71260297298431 -0.68544644117355
vn -0.178098320961 -0.67801737785339 -0.7131432890892
vn -0.26763275265694 -0.93271458148956 -0.24169450998306
vn -0.96994197368622 -0.0284698009491 0.24166515469551
vn -0.77635300159454 -0.6029759645462 0.18356469273567
vn -0.77635300159454 -0.6029759645462 -0.18356469273567
vn -0.96994197368622 -0.0284698009491 -0.24166515469551
vn 0.14953319728374 -0.71260297298431 0.68544644117355
vn -0.178098320961 -0.67801737785339 0.7131432890892
vn -0.23122443258762 -0.17959816753864 0.95617979764938
vn -0.70101010799408 -0.00478131929412 -0.7131353020668
vn -0.65342396497726 0.32122746109962 -0.68545609712601
vn -0.87299227714539 0.42891782522202 -0.23219376802444
vn -0.19950586557388 0.9519966840744 0.23216307163239
vn -0.60545754432678 0.77955710887909 0.16034905612469
vn -0.60545754432678 0.77955710887909 -0.16034905612469
vn -0.19950586557388 0.9519966840744 -0.23216307163239
vn -0.70101010799408 -0.00478131929412 0.7131353020668
vn -0.65342396497726 0.32122746109962 0.68545609712601
vn -0.22278854250908 0.28682190179825 0.93171799182892
vn 0.23122572898865 0.17956791818142 -0.95618516206741
vn 0.17809852957726 0.67804938554764 -0.71311283111572
vn -0.14950263500214 0.71260631084442 -0.68544960021973
vn -0.22278854250908 0.28682190179825 -0.93171799182892
vn 0.26759797334671 0.93273347616196 0.24166005849838
vn 0.17809852957726 0.67804938554764 0.71311283111572
vn -0.14950263500214 0.71260631084442 0.68544960021973
vn -0.62242031097412 0.48238590359688 0.61635768413544
vn 0.51464700698853 0.65434056520462 0.55405497550964
vn 0.2012842297554 0.95160788297653 0.23222218453884
vn 0.62057936191559 -0.488106995821 0.61370414495468
vn -0.51038646697998 -0.65854609012604 0.55301243066788
vn -0.62242031097412 0.48238590359688 -0.61635768413544
vn -0.96996784210205 0.02675083838403 -0.24175757169724
vn 0.51464700698853 0.65434056520462 -0.55405497550964
vn -0.51038646697998 -0.65854609012604 -0.55301243066788
vn -0.19922392070293 -0.95205593109131 -0.23216226696968
vn 0.62057936191559 -0.488106995821 -0.61370414495468
vn 0.96969747543335 -0.03871914744377 -0.24122123420238
vn 0.62214767932892 0.48320510983467 0.61599117517471
vn 0.51101446151733 -0.65792483091354 0.55317187309265
vn 0.87299227714539 -0.42891782522202 0.23219376802444
vn -0.62214767932892 -0.48320510983467 0.61599117517471
vn -0.26763275265694 -0.93271458148956 0.24169450998306
vn -0.51101446151733 0.65792483091354 0.55317187309265
vn -0.87299227714539 0.42891782522202 0.23219376802444
vn -0.51101446151733 0.65792483091354 -0.55317187309265
vn 0.62214767932892 0.48320510983467 -0.61599117517471
vn 0.51101446151733 -0.65792483091354 -0.55317187309265
vn 0.22278654575348 -0.28685060143471 -0.93170964717865
vn -0.62214767932892 -0.48320510983467 -0.61599117517471
vn -0.23122443258762 -0.17959816753864 -0.95617979764938
vn 0.23178943991661 -0.18228769302368 0.95553380250931
vn -0.22262704372406 -0.28722137212753 0.93163353204727
vn 0.26759797334671 0.93273347616196 -0.24166005849838
# 120 normals

vt 0.00309216184542 0.98729634284973 0
vt 0.24031464755535 0.98729634284973 0
vt 0.24031464755535 0.01270365715027 0
vt 0.00309216184542 0.01270365715027 0
vt 0.24654823541641 0.98769229650497 0
vt 0.49550583958626 0.98769229650497 0
vt 0.49550583958626 0.01230776309967 0
vt 0.24654823541641 0.01230776309967 0
vt 0.50173556804657 0.98726689815521 0
vt 0.73809951543808 0.98726689815521 0
vt 0.73809951543808 0.01273310184479 0
vt 0.50173556804657 0.01273310184479 0
vt 0.74434286355972 0.9878094792366 0
vt 0.9968449473381 0.9878094792366 0
vt 0.9968449473381 0.01219058036804 0
vt 0.74434286355972 0.01219058036804 0
vt 0.00098673754837 0.99766492843628 0
vt 0.00098673754837 0.00233507156372 0
vt 0.42158105969429 0.00233507156372 0
vt 0.42158105969429 0.99766492843628 0
vt 0.42353510856628 0.98750752210617 0
vt 0.42353510856628 0.01249253749847 0
vt 0.49903267621994 0.01249253749847 0
vt 0.49903267621994 0.98750752210617 0
vt 0.50098675489426 0.99766492843628 0
vt 0.50098675489426 0.00233507156372 0
vt 0.92158102989197 0.00233507156372 0
vt 0.92158102989197 0.99766492843628 0
vt 0.92353510856628 0.98750752210617 0
vt 0.92353510856628 0.01249253749847 0
vt 0.99903267621994 0.01249253749847 0
vt 0.99903267621994 0.98750752210617 0
vt 0.00281574088149 0.99791115522385 0
vt 0.04772822186351 0.8235387802124 0
vt 0.23655121028423 0.82353639602661 0
vt 0.19427911937237 0.99791687726974 0
vt 0.73256158828735 0.99717956781387 0
vt 0.47853857278824 0.00202870368958 0
vt 0.29053327441216 0.00282049179077 0
vt 0.54455631971359 0.99797129631042 0
vt 0.00290865730494 0.99475103616714 0
vt 0.2410669028759 0.99475014209747 0
vt 0.24343144893646 0.98749428987503 0
vt 0.24343144893646 0.01250576972961 0
vt 0.0079445745796 0.99904274940491 0
vt 0.05262448266149 0.82557678222656 0
vt 0.99996852874756 0.98755288124084 0
vt 0.99996852874756 0.01244711875916 0
vt 0.24584667384624 0.99488973617554 0
vt 0.49568715691566 0.99488854408264 0
vt 0.49862068891525 0.98747956752777 0
vt 0.49862068891525 0.01252043247223 0
vt 0.04842978715897 0.82864904403687 0
vt 0.23636987805367 0.82864785194397 0
vt 0.50153183937073 0.99473810195923 0
vt 0.73883950710297 0.99473720788956 0
vt 0.7412211894989 0.98753815889359 0
vt 0.7412211894989 0.01246190071106 0
vt 0.23138946294785 0.82249474525452 0
vt 0.18933881819248 0.99595779180527 0
vt 0.00298539688811 1.00505089759827 0
vt 0.19358482956886 1.00505375862122 0
vt 0.99701458215714 0.00713968276978 0
vt 0.74364858865738 0.00713682174683 0
vt 0.00000970688416 0.9925861954689 0
vt 0.00000970688416 0.00741386413574 0
vt 0.00201484607533 0.0009092092514 0
vt 0.42107498645782 0.00098168849945 0
vt 0.42255806922913 0.9925861954689 0
vt 0.42255806922913 0.00741386413574 0
vt 0.73193514347076 0.99840068817139 0
vt 0.47746220231056 0.00178134441376 0
vt 0.42298421263695 0.00523197650909 0
vt 0.49888944625854 0.0048360824585 0
vt 0.5000097155571 0.9925861954689 0
vt 0.5000097155571 0.00741386413574 0
vt 0.4779876768589 0.00726068019867 0
vt 0.29039004445076 0.00765657424927 0
vt 0.50201487541199 0.0009092092514 0
vt 0.92107498645782 0.00098168849945 0
vt 0.92255806922913 0.9925861954689 0
vt 0.92255806922913 0.00741386413574 0
vt 0.29115971922874 0.0015994310379 0
vt 0.54563271999359 0.99821865558624 0
vt 0.73270481824875 1.0048360824585 0
vt 0.54510724544525 1.0052318572998 0
vt 0.99888944625854 0.99234354496002 0
vt 0.92298424243927 0.99273937940598 0
vt 0 1 0
vt 1 1 0
vt 1 0 0
vt 0 0 0
vt 0.0027251529973 1.00220572948456 0
vt 0.24181915819645 1.00220394134521 0
vt 0.01307340711355 1.00017428398132 0
vt 0.05752073973417 0.82761472463608 0
vt 1.00309216976166 0.98729634284973 0
vt 1.00309216976166 0.01270365715027 0
vt 0.24514511227608 1.00208723545074 0
vt 0.49586850404739 1.00208485126495 0
vt 0.04913135245442 0.83375930786133 0
vt 0.23618856072426 0.83375930786133 0
vt 0.50132811069489 1.00220942497253 0
vt 0.73957949876785 1.0022075176239 0
vt 0.22622773051262 0.82145303487778 0
vt 0.1843985170126 0.99399870634079 0
vt 0.0031550526619 1.01219058036804 0
vt 0.1928905248642 1.01219058036804 0
vt 0.99718427658081 0.0020889043808 0
vt 0.74295425415039 0.0020831823349 0
vt -0.00096732378006 0.98750752210617 0
vt -0.00096732378006 0.01249253749847 0
vt 0.00304295471869 -0.00051665306091 0
vt 0.42056891322136 -0.00037169456482 0
vt 0.73130869865417 0.9996218085289 0
vt 0.47638583183289 0.00153386592865 0
vt 0.42243331670761 -0.00202870368958 0
vt 0.49874621629715 -0.00282049179077 0
vt 0.47743678092957 0.01249253749847 0
vt 0.29024681448936 0.01249253749847 0
vt 0.50304305553436 -0.00051665306091 0
vt 0.92056888341904 -0.00037169456482 0
vt 0.29178613424301 0.00037825107574 0
vt 0.54670906066895 0.99846607446671 0
vt 0.73284804821014 1.01249253749847 0
vt 0.54565811157227 1.01249253749847 0
vt 0.99874621629715 0.99717956781387 0
vt 0.92243331670761 0.99797129631042 0
# 128 texture coordinates

o Extrude
usemtl default
f 12/4/1 11/3/1 10/2/1 9/1/1
f 16/8/2 15/7/2 14/6/2 13/5/2
f 20/12/3 19/11/3 18/10/3 17/9/3
f 8/16/4 7/15/4 6/14/4 5/13/4
f 32/20/5 31/19/5 30/18/5 29/17/5
f 36/24/2 35/23/2 34/22/2 33/21/2
f 40/28/6 39/27/6 38/26/6 37/25/6
f 28/32/4 27/31/4 26/30/4 25/29/4
f 44/36/7 43/35/7 42/34/7 41/33/7
f 4/34/8 3/35/8 2/36/8 1/33/8
f 24/40/8 23/39/8 22/38/8 21/37/8
f 48/38/7 47/39/7 46/40/7 45/37/7
f 10/2/12 76/42/11 65/41/10 9/1/9
f 11/3/15 83/44/14 75/43/13 10/2/12
f 42/34/19 85/46/18 78/45/17 41/33/16
f 7/15/23 77/48/22 66/47/21 6/14/20
f 14/6/27 73/50/26 74/49/25 13/5/24
f 15/7/30 86/52/29 72/51/28 14/6/27
f 43/35/33 88/54/32 84/53/31 42/34/19
f 18/10/37 70/56/36 71/55/35 17/9/34
f 19/11/40 82/58/39 69/57/38 18/10/37
f 44/36/43 81/60/42 87/59/41 43/35/33
f 2/36/47 68/62/46 67/61/45 1/33/44
f 8/16/50 80/64/49 79/63/48 7/15/23
f 30/18/54 106/66/53 90/65/52 29/17/51
f 31/19/57 107/68/56 105/67/55 30/18/54
f 34/22/61 109/70/60 93/69/59 33/21/58
f 22/38/65 92/72/64 91/71/63 21/37/62
f 35/23/68 110/74/67 108/73/66 34/22/61
f 38/26/72 112/76/71 96/75/70 37/25/69
f 23/39/75 95/78/74 94/77/73 22/38/65
f 39/27/78 102/80/77 111/79/76 38/26/72
f 26/30/82 101/82/81 99/81/80 25/29/79
f 24/40/85 98/84/84 97/83/83 23/39/75
f 46/40/89 103/86/88 104/85/87 45/37/86
f 25/29/79 100/88/92 89/87/91 28/32/90
f 66/92/21 9/91/9 65/90/10 49/89/93
f 69/92/38 5/91/95 68/90/46 50/89/94
f 72/92/28 17/91/34 71/90/35 51/89/96
f 75/92/13 13/91/24 74/90/25 52/89/97
f 78/92/17 12/91/99 77/90/22 53/89/98
f 81/92/42 44/91/43 80/90/49 54/89/100
f 84/92/31 16/91/102 83/90/14 55/89/101
f 87/92/41 20/91/104 86/90/29 56/89/103
f 90/92/52 28/91/90 89/90/91 57/89/105
f 93/92/59 32/91/107 92/90/64 58/89/106
f 96/92/70 36/91/109 95/90/74 59/89/108
f 99/92/80 40/91/111 98/90/84 60/89/110
f 102/92/77 39/91/78 101/90/81 61/89/112
f 105/92/55 45/91/86 104/90/87 62/89/113
f 108/92/66 48/91/115 107/90/56 63/89/114
f 111/92/76 47/91/117 110/90/67 64/89/116
f 67/92/45 6/91/20 66/90/21 49/89/93
f 65/92/10 1/91/44 67/90/45 49/89/93
f 70/92/36 18/91/37 69/90/38 50/89/94
f 68/92/46 2/91/47 70/90/36 50/89/94
f 73/92/26 14/91/27 72/90/28 51/89/96
f 71/92/35 3/91/118 73/90/26 51/89/96
f 76/92/11 10/91/12 75/90/13 52/89/97
f 74/92/25 4/91/119 76/90/11 52/89/97
f 79/92/48 41/91/16 78/90/17 53/89/98
f 77/92/22 7/91/23 79/90/48 53/89/98
f 82/92/39 19/91/40 81/90/42 54/89/100
f 80/92/49 8/91/50 82/90/39 54/89/100
f 85/92/18 42/91/19 84/90/31 55/89/101
f 83/92/14 11/91/15 85/90/18 55/89/101
f 88/92/32 43/91/33 87/90/41 56/89/103
f 86/92/29 15/91/30 88/90/32 56/89/103
f 91/92/63 29/91/51 90/90/52 57/89/105
f 89/92/91 21/91/62 91/90/63 57/89/105
f 94/92/73 33/91/58 93/90/59 58/89/106
f 92/92/64 22/91/65 94/90/73 58/89/106
f 97/92/83 37/91/69 96/90/70 59/89/108
f 95/92/74 23/91/75 97/90/83 59/89/108
f 100/92/92 25/91/79 99/90/80 60/89/110
f 98/92/84 24/91/85 100/90/92 60/89/110
f 103/92/88 46/91/89 102/90/77 61/89/112
f 101/92/81 26/91/82 103/90/88 61/89/112
f 106/92/53 30/91/54 105/90/55 62/89/113
f 104/92/87 27/91/120 106/90/53 62/89/113
f 109/92/60 34/91/61 108/90/66 63/89/114
f 107/92/56 31/91/57 109/90/60 63/89/114
f 112/92/71 38/91/72 111/90/76 64/89/116
f 110/92/67 35/91/68 112/90/71 64/89/116
f 76/42/11 4/94/119 1/93/44 65/41/10
f 83/44/14 16/8/102 13/5/24 75/43/13
f 85/46/18 11/96/15 12/95/99 78/45/17
f 77/48/22 12/98/99 9/97/9 66/47/21
f 73/50/26 3/100/118 4/99/119 74/49/25
f 86/52/29 20/12/104 17/9/34 72/51/28
f 88/54/32 15/102/30 16/101/102 84/53/31
f 70/56/36 2/104/47 3/103/118 71/55/35
f 82/58/39 8/16/50 5/13/95 69/57/38
f 81/60/42 19/106/40 20/105/104 87/59/41
f 68/62/46 5/108/95 6/107/20 67/61/45
f 80/64/49 44/110/43 41/109/16 79/63/48
f 106/66/53 27/112/120 28/111/90 90/65/52
f 107/68/56 48/114/115 45/113/86 105/67/55
f 109/70/60 31/19/57 32/20/107 93/69/59
f 92/72/64 32/116/107 29/115/51 91/71/63
f 110/74/67 47/118/117 48/117/115 108/73/66
f 112/76/71 35/23/68 36/24/109 96/75/70
f 95/78/74 36/120/109 33/119/58 94/77/73
f 102/80/77 46/122/89 47/121/117 111/79/76
f 101/82/81 39/27/78 40/28/111 99/81/80
f 98/84/84 40/124/111 37/123/69 97/83/83
f 103/86/88 26/126/82 27/125/120 104/85/87
f 100/88/92 24/128/85 21/127/62 89/87/91

